HIERARCHY
ROOT Hips
{
	OFFSET 0.000000 0.000000 0.000000
	CHANNELS 6 Xposition Yposition Zposition Zrotation Yrotation Xrotation 
	JOINT Spine1
	{
		OFFSET -0.013727 5.003763 -0.053727
		CHANNELS 3 Zrotation Yrotation Xrotation
		JOINT Spine2
		{
			OFFSET -0.000000 7.125302 -0.029825
			CHANNELS 3 Zrotation Yrotation Xrotation
			JOINT Chest
			{
				OFFSET -0.000001 7.550064 -0.815971
				CHANNELS 3 Zrotation Yrotation Xrotation
				JOINT Neck1
				{
					OFFSET -0.181677 26.311296 -0.553348
					CHANNELS 3 Zrotation Yrotation Xrotation
					JOINT Neck2
					{
						OFFSET -0.000003 7.709399 2.302586
						CHANNELS 3 Zrotation Yrotation Xrotation
						JOINT Head
						{
							OFFSET -0.000005 6.128913 1.953709
							CHANNELS 3 Zrotation Yrotation Xrotation
							JOINT HeadEnd
							{
								OFFSET 0.003598 16.065403 -1.835380
								CHANNELS 3 Zrotation Yrotation Xrotation
								End Site
								{
									OFFSET 0.000000 0.000000 0.000000
								}
							}
							JOINT Jaw
							{
								OFFSET 0.002637 0.475592 3.094941
								CHANNELS 3 Zrotation Yrotation Xrotation
								End Site
								{
									OFFSET 0.000000 0.000000 0.000000
								}
							}
							JOINT LeftEye
							{
								OFFSET 3.206380 5.380207 7.586883
								CHANNELS 3 Zrotation Yrotation Xrotation
								End Site
								{
									OFFSET 0.000000 0.000000 0.000000
								}
							}
							JOINT RightEye
							{
								OFFSET -3.222440 5.361867 7.558232
								CHANNELS 3 Zrotation Yrotation Xrotation
								End Site
								{
									OFFSET 0.000000 0.000000 0.000000
								}
							}
						}
					}
				}
				JOINT LeftShoulder
				{
					OFFSET 1.621652 23.237164 5.113413
					CHANNELS 3 Zrotation Yrotation Xrotation
					JOINT LeftArm
					{
						OFFSET 14.919845 0.000000 -5.502326
						CHANNELS 3 Zrotation Yrotation Xrotation
						JOINT LeftForeArm
						{
							OFFSET 28.739309 0.000002 -0.002588
							CHANNELS 3 Zrotation Yrotation Xrotation
							JOINT LeftHand
							{
								OFFSET 27.093983 -0.000003 0.002609
								CHANNELS 3 Zrotation Yrotation Xrotation
								JOINT LeftHandThumb1
								{
									OFFSET 2.276480 -1.392046 3.191413
									CHANNELS 3 Zrotation Yrotation Xrotation
									JOINT LeftHandThumb2
									{
										OFFSET 4.012841 -1.828126 1.641655
										CHANNELS 3 Zrotation Yrotation Xrotation
										JOINT LeftHandThumb3
										{
											OFFSET 2.798516 0.000000 -0.000003
											CHANNELS 3 Zrotation Yrotation Xrotation
											JOINT LeftHandThumbEnd
											{
												OFFSET 3.180791 -0.000001 0.000002
												CHANNELS 3 Zrotation Yrotation Xrotation
												End Site
												{
													OFFSET 0.000000 0.000000 0.000000
												}
											}
										}
									}
								}
								JOINT LeftHandIndex1
								{
									OFFSET 3.247554 -0.531998 2.296169
									CHANNELS 3 Zrotation Yrotation Xrotation
									JOINT LeftHandIndex2
									{
										OFFSET 6.364580 0.012062 0.178599
										CHANNELS 3 Zrotation Yrotation Xrotation
										JOINT LeftHandIndex3
										{
											OFFSET 3.662366 0.000001 -0.000000
											CHANNELS 3 Zrotation Yrotation Xrotation
											JOINT LeftHandIndex4
											{
												OFFSET 2.329242 0.000003 0.000004
												CHANNELS 3 Zrotation Yrotation Xrotation
												JOINT LeftHandIndexEnd
												{
													OFFSET 2.759619 -0.180539 -0.113024
													CHANNELS 3 Zrotation Yrotation Xrotation
													End Site
													{
														OFFSET 0.000000 0.000000 0.000000
													}
												}
											}
										}
									}
								}
								JOINT LeftHandMiddle1
								{
									OFFSET 3.163498 0.240982 1.000332
									CHANNELS 3 Zrotation Yrotation Xrotation
									JOINT LeftHandMiddle2
									{
										OFFSET 6.190778 -0.259276 -1.002549
										CHANNELS 3 Zrotation Yrotation Xrotation
										JOINT LeftHandMiddle3
										{
											OFFSET 4.356523 -0.000006 0.000000
											CHANNELS 3 Zrotation Yrotation Xrotation
											JOINT LeftHandMiddle4
											{
												OFFSET 2.996875 -0.000006 0.000000
												CHANNELS 3 Zrotation Yrotation Xrotation
												JOINT LeftHandMiddleEnd
												{
													OFFSET 2.304294 -0.294571 -0.031740
													CHANNELS 3 Zrotation Yrotation Xrotation
													End Site
													{
														OFFSET 0.000000 0.000000 0.000000
													}
												}
											}
										}
									}
								}
								JOINT LeftHandRing1
								{
									OFFSET 2.882642 -0.053650 -0.322543
									CHANNELS 3 Zrotation Yrotation Xrotation
									JOINT LeftHandRing2
									{
										OFFSET 5.854542 -0.486203 -1.373841
										CHANNELS 3 Zrotation Yrotation Xrotation
										JOINT LeftHandRing3
										{
											OFFSET 4.350581 0.000001 0.000004
											CHANNELS 3 Zrotation Yrotation Xrotation
											JOINT LeftHandRing4
											{
												OFFSET 2.651324 0.000007 0.000004
												CHANNELS 3 Zrotation Yrotation Xrotation
												JOINT LeftHandRingEnd
												{
													OFFSET 1.936110 0.077685 -0.000070
													CHANNELS 3 Zrotation Yrotation Xrotation
													End Site
													{
														OFFSET 0.000000 0.000000 0.000000
													}
												}
											}
										}
									}
								}
								JOINT LeftHandPinky1
								{
									OFFSET 2.865499 -0.310004 -1.600378
									CHANNELS 3 Zrotation Yrotation Xrotation
									JOINT LeftHandPinky2
									{
										OFFSET 5.087853 -1.331142 -1.771231
										CHANNELS 3 Zrotation Yrotation Xrotation
										JOINT LeftHandPinky3
										{
											OFFSET 3.070975 0.000003 0.000000
											CHANNELS 3 Zrotation Yrotation Xrotation
											JOINT LeftHandPinky4
											{
												OFFSET 1.549667 0.000000 0.000000
												CHANNELS 3 Zrotation Yrotation Xrotation
												JOINT LeftHandPinkyEnd
												{
													OFFSET 1.944895 -0.157802 0.057219
													CHANNELS 3 Zrotation Yrotation Xrotation
													End Site
													{
														OFFSET 0.000000 0.000000 0.000000
													}
												}
											}
										}
									}
								}
							}
						}
					}
				}
				JOINT RightShoulder
				{
					OFFSET -1.380118 23.180307 5.214158
					CHANNELS 3 Zrotation Yrotation Xrotation
					JOINT RightArm
					{
						OFFSET -15.037197 0.000012 -5.545604
						CHANNELS 3 Zrotation Yrotation Xrotation
						JOINT RightForeArm
						{
							OFFSET -28.736639 0.000002 -0.002596
							CHANNELS 3 Zrotation Yrotation Xrotation
							JOINT RightHand
							{
								OFFSET -27.133617 -0.000001 0.002612
								CHANNELS 3 Zrotation Yrotation Xrotation
								JOINT RightHandThumb1
								{
									OFFSET -2.274036 -1.383990 3.163127
									CHANNELS 3 Zrotation Yrotation Xrotation
									JOINT RightHandThumb2
									{
										OFFSET -4.011429 -1.827467 1.640914
										CHANNELS 3 Zrotation Yrotation Xrotation
										JOINT RightHandThumb3
										{
											OFFSET -2.794934 -0.000003 -0.000004
											CHANNELS 3 Zrotation Yrotation Xrotation
											JOINT RightHandThumbEnd
											{
												OFFSET -3.183855 0.000003 -0.000000
												CHANNELS 3 Zrotation Yrotation Xrotation
												End Site
												{
													OFFSET 0.000000 0.000000 0.000000
												}
											}
										}
									}
								}
								JOINT RightHandIndex1
								{
									OFFSET -3.253269 -0.520059 2.282866
									CHANNELS 3 Zrotation Yrotation Xrotation
									JOINT RightHandIndex2
									{
										OFFSET -6.341918 0.012473 0.178265
										CHANNELS 3 Zrotation Yrotation Xrotation
										JOINT RightHandIndex3
										{
											OFFSET -3.654875 -0.000009 -0.000001
											CHANNELS 3 Zrotation Yrotation Xrotation
											JOINT RightHandIndex4
											{
												OFFSET -2.327586 -0.000001 0.000001
												CHANNELS 3 Zrotation Yrotation Xrotation
												JOINT RightHandIndexEnd
												{
													OFFSET -2.761789 -0.180657 -0.113079
													CHANNELS 3 Zrotation Yrotation Xrotation
													End Site
													{
														OFFSET 0.000000 0.000000 0.000000
													}
												}
											}
										}
									}
								}
								JOINT RightHandMiddle1
								{
									OFFSET -3.168106 0.246594 1.001030
									CHANNELS 3 Zrotation Yrotation Xrotation
									JOINT RightHandMiddle2
									{
										OFFSET -6.180830 -0.258836 -1.000896
										CHANNELS 3 Zrotation Yrotation Xrotation
										JOINT RightHandMiddle3
										{
											OFFSET -4.348905 -0.000000 -0.000000
											CHANNELS 3 Zrotation Yrotation Xrotation
											JOINT RightHandMiddle4
											{
												OFFSET -3.000243 -0.000003 -0.000003
												CHANNELS 3 Zrotation Yrotation Xrotation
												JOINT RightHandMiddleEnd
												{
													OFFSET -2.302518 -0.294371 -0.031706
													CHANNELS 3 Zrotation Yrotation Xrotation
													End Site
													{
														OFFSET 0.000000 0.000000 0.000000
													}
												}
											}
										}
									}
								}
								JOINT RightHandRing1
								{
									OFFSET -2.885693 -0.067952 -0.308858
									CHANNELS 3 Zrotation Yrotation Xrotation
									JOINT RightHandRing2
									{
										OFFSET -5.854197 -0.486132 -1.373732
										CHANNELS 3 Zrotation Yrotation Xrotation
										JOINT RightHandRing3
										{
											OFFSET -4.338814 -0.000003 -0.000000
											CHANNELS 3 Zrotation Yrotation Xrotation
											JOINT RightHandRing4
											{
												OFFSET -2.654906 -0.000004 0.000003
												CHANNELS 3 Zrotation Yrotation Xrotation
												JOINT RightHandRingEnd
												{
													OFFSET -1.933570 0.077524 -0.000052
													CHANNELS 3 Zrotation Yrotation Xrotation
													End Site
													{
														OFFSET 0.000000 0.000000 0.000000
													}
												}
											}
										}
									}
								}
								JOINT RightHandPinky1
								{
									OFFSET -2.866429 -0.342798 -1.584145
									CHANNELS 3 Zrotation Yrotation Xrotation
									JOINT RightHandPinky2
									{
										OFFSET -5.091370 -1.332054 -1.772385
										CHANNELS 3 Zrotation Yrotation Xrotation
										JOINT RightHandPinky3
										{
											OFFSET -3.062666 -0.000007 -0.000000
											CHANNELS 3 Zrotation Yrotation Xrotation
											JOINT RightHandPinky4
											{
												OFFSET -1.546526 0.000006 -0.000003
												CHANNELS 3 Zrotation Yrotation Xrotation
												JOINT RightHandPinkyEnd
												{
													OFFSET -1.945122 -0.157721 0.057211
													CHANNELS 3 Zrotation Yrotation Xrotation
													End Site
													{
														OFFSET 0.000000 0.000000 0.000000
													}
												}
											}
										}
									}
								}
							}
						}
					}
				}
			}
		}
	}
	JOINT LeftLeg
	{
		OFFSET 10.043214 -8.434526 2.595655
		CHANNELS 3 Zrotation Yrotation Xrotation
		JOINT LeftShin
		{
			OFFSET -0.000001 -43.221752 -0.802913
			CHANNELS 3 Zrotation Yrotation Xrotation
			JOINT LeftFoot
			{
				OFFSET 0.000002 -42.155094 -3.481523
				CHANNELS 3 Zrotation Yrotation Xrotation
				JOINT LeftToeBase
				{
					OFFSET 0.000000 -5.059474 13.231529
					CHANNELS 3 Zrotation Yrotation Xrotation
					JOINT LeftToeEnd
					{
						OFFSET -0.009607 -1.647615 6.513017
						CHANNELS 3 Zrotation Yrotation Xrotation
						End Site
						{
							OFFSET 0.000000 0.000000 0.000000
						}
					}
				}
			}
		}
	}
	JOINT RightLeg
	{
		OFFSET -10.047277 -8.295259 2.620317
		CHANNELS 3 Zrotation Yrotation Xrotation
		JOINT RightShin
		{
			OFFSET 0.000001 -43.362209 -0.805556
			CHANNELS 3 Zrotation Yrotation Xrotation
			JOINT RightFoot
			{
				OFFSET 0.000002 -42.117393 -3.478398
				CHANNELS 3 Zrotation Yrotation Xrotation
				JOINT RightToeBase
				{
					OFFSET -0.000001 -5.079609 13.284196
					CHANNELS 3 Zrotation Yrotation Xrotation
					JOINT RightToeEnd
					{
						OFFSET 0.009532 -1.634383 6.460591
						CHANNELS 3 Zrotation Yrotation Xrotation
						End Site
						{
							OFFSET 0.000000 0.000000 0.000000
						}
					}
				}
			}
		}
	}
}
MOTION
Frames: 4
Frame Time: 0.033333
1.190724 99.266754 2.333210 0.164582 -3.681804 -1.448199 -0.452422 0.221301 -1.013749 -0.701414 0.166800 -5.340199 -0.747518 -1.615580 9.691714 0.808416 2.799242 2.111969 -0.381335 0.659092 -3.580322 -1.126129 0.604461 -11.011622 0.000077 -0.000022 0.000006 0.009457 0.040373 0.049981 0.700185 -3.695877 -10.579236 -0.687015 3.776699 -10.576606 -9.415608 -8.726001 12.538133 -49.663090 -3.294261 23.915142 0.051043 -41.035610 0.274598 -4.124375 -11.560181 12.056996 -5.882102 9.861278 0.702591 -10.936859 -0.360575 7.156197 -0.000000 8.774813 -0.000001 -15.802873 17.659090 6.014101 -1.844031 2.498503 -2.507277 -10.163589 4.678939 4.621105 -20.975994 -0.000003 0.000003 -21.226255 2.451691 -3.593993 0.000003 -0.000006 -0.000001 -1.362678 2.240796 -0.746321 -21.334887 0.584908 3.008322 -13.821195 -0.000003 0.000004 -23.887129 -0.249077 -0.839480 -59.882015 2.606742 -1.019922 -0.294024 1.679686 0.833254 -14.218190 0.093214 1.300580 -34.212006 -0.287562 0.967169 -20.033180 0.964537 1.212841 0.000001 -0.000000 0.000001 -3.440384 0.788233 0.501655 -15.928171 -3.167305 2.999707 -6.338817 -0.000001 0.000002 -18.123415 3.648178 -4.905662 -0.000004 -0.000000 -0.000002 17.385960 12.826116 16.054764 44.673836 8.193121 23.524815 0.727520 45.954803 0.615452 0.029755 3.047509 3.761064 2.243539 -5.255033 -3.180156 14.282877 -0.826592 6.952497 -0.000003 -12.690591 -0.000002 16.468853 -17.924501 2.321733 1.665664 -1.955919 -2.878298 4.727793 -4.170583 4.993919 11.020512 0.000003 -0.000001 12.109032 -3.735708 -2.866779 0.000000 -0.000000 -0.000001 1.291985 -1.928547 -1.498087 14.800111 0.567468 3.865602 14.242551 -1.341733 -6.660649 19.631941 0.143928 -0.648244 49.953289 -0.910903 -6.606638 0.353028 -1.511149 -0.031941 20.222769 3.684307 2.316630 18.787247 0.000006 0.000000 10.751610 -0.479868 1.397903 0.000000 0.000001 0.000001 3.273804 0.305949 -0.580110 21.486790 11.830367 2.266129 8.162916 0.000002 0.000000 18.399050 -3.798978 -4.940567 0.000004 -0.000001 -0.000002 6.980205 9.826241 -4.152483 -0.063690 -0.304399 13.503335 -7.184104 4.713875 -6.805858 1.634182 -2.037513 -1.088471 -0.000000 0.000000 0.000002 -6.401278 -6.014548 -8.193903 0.059590 0.282226 15.787525 8.507462 0.219985 -5.521493 -1.397261 0.969082 -1.163250 -0.000000 -0.000000 -0.000001 
1.112917 99.265160 2.283143 0.145098 -3.659347 -1.423039 -0.440707 0.228940 -0.981368 -0.704145 0.147077 -5.327156 -0.735414 -1.628125 9.710720 0.870086 2.773632 2.145242 -0.379660 0.694723 -3.576487 -1.138144 0.637756 -11.132946 0.000077 -0.000022 0.000006 0.009518 0.040895 0.053433 0.701614 -3.693329 -10.564404 -0.687475 3.772195 -10.563411 -9.412299 -8.745246 12.586928 -49.688374 -3.140104 23.844788 0.057058 -40.838921 0.264900 -4.214976 -11.431860 12.017859 -5.882100 9.861278 0.702591 -10.936858 -0.360575 7.156197 0.000000 8.774814 -0.000001 -15.789994 17.673359 6.045697 -1.844030 2.498503 -2.507275 -10.163590 4.678941 4.621105 -20.975998 -0.000001 0.000004 -21.226255 2.451694 -3.593994 0.000001 -0.000005 -0.000000 -1.362682 2.240796 -0.746323 -21.334892 0.584909 3.008321 -13.821197 -0.000000 0.000003 -23.887131 -0.249077 -0.839481 -59.910522 2.588928 -0.997764 -0.294024 1.679685 0.833254 -14.218195 0.093216 1.300580 -34.212006 -0.287561 0.967171 -20.033178 0.964535 1.212841 -0.000001 0.000000 0.000000 -3.440386 0.788233 0.501655 -15.928169 -3.167306 2.999703 -6.338817 0.000000 0.000002 -18.123417 3.648177 -4.905661 -0.000004 -0.000000 -0.000003 17.368513 12.802250 16.069597 44.724110 8.100888 23.434935 0.729567 45.977051 0.600342 0.002736 3.084036 3.892765 2.243540 -5.255032 -3.180155 14.282879 -0.826594 6.952493 -0.000000 -12.690588 -0.000001 16.478685 -17.892847 2.309435 1.665663 -1.955919 -2.878297 4.727794 -4.170585 4.993917 11.020513 0.000003 -0.000001 12.109034 -3.735709 -2.866781 0.000000 0.000000 0.000000 1.291983 -1.928548 -1.498089 14.800117 0.567468 3.865603 14.242554 -1.341735 -6.660646 19.631939 0.143925 -0.648243 49.948299 -0.898877 -6.593410 0.353028 -1.511148 -0.031942 20.222773 3.684304 2.316628 18.787247 0.000005 -0.000002 10.751610 -0.479868 1.397904 0.000000 0.000002 -0.000001 3.273805 0.305945 -0.580110 21.486790 11.830360 2.266129 8.162917 0.000002 0.000000 18.399057 -3.798977 -4.940569 0.000003 -0.000001 -0.000002 7.035608 9.810823 -4.227633 -0.067886 -0.295519 13.509186 -7.197351 4.728716 -6.764987 1.633509 -2.034992 -1.093413 -0.000000 0.000000 0.000002 -6.323119 -5.953717 -8.287771 0.053188 0.284375 15.857465 8.432843 0.138829 -5.532197 -1.398437 0.967967 -1.133210 0.000000 0.000000 -0.000001 
0.996430 99.260971 2.244196 0.142139 -3.633159 -1.415035 -0.432177 0.230739 -0.929400 -0.710463 0.119898 -5.307010 -0.724188 -1.618472 9.724307 0.920283 2.737796 2.161070 -0.372912 0.744660 -3.574485 -1.147810 0.651332 -11.251051 0.000077 -0.000022 0.000006 0.009821 0.043667 0.053397 0.702975 -3.691133 -10.569426 -0.690973 3.776735 -10.567542 -9.375303 -8.777771 12.616550 -49.744453 -3.002337 23.777594 0.071465 -40.706688 0.265543 -4.266762 -11.289358 11.926973 -5.882102 9.861280 0.702589 -10.936858 -0.360574 7.156196 -0.000001 8.774814 -0.000001 -15.783840 17.689043 6.066806 -1.844031 2.498503 -2.507276 -10.163588 4.678940 4.621102 -20.975994 -0.000001 0.000003 -21.226254 2.451692 -3.593995 0.000003 -0.000006 -0.000001 -1.362683 2.240797 -0.746324 -21.334892 0.584909 3.008319 -13.821195 -0.000001 0.000003 -23.887129 -0.249077 -0.839483 -59.952316 2.567966 -0.984902 -0.294024 1.679686 0.833254 -14.218190 0.093216 1.300577 -34.211998 -0.287561 0.967167 -20.033176 0.964536 1.212839 -0.000001 0.000000 -0.000000 -3.440387 0.788233 0.501656 -15.928165 -3.167304 2.999703 -6.338817 0.000000 0.000001 -18.123413 3.648178 -4.905663 -0.000004 -0.000001 -0.000003 17.308016 12.782556 16.075409 44.819530 8.059686 23.398563 0.733016 45.980373 0.582146 -0.049483 3.145509 3.982544 2.243539 -5.255032 -3.180155 14.282877 -0.826593 6.952496 -0.000003 -12.690592 -0.000000 16.485460 -17.888937 2.309984 1.665665 -1.955920 -2.878296 4.727793 -4.170582 4.993918 11.020513 0.000003 -0.000002 12.109032 -3.735709 -2.866778 0.000000 -0.000000 -0.000001 1.291982 -1.928546 -1.498087 14.800111 0.567469 3.865603 14.242554 -1.341734 -6.660649 19.631939 0.143926 -0.648244 49.930668 -0.905558 -6.582145 0.353028 -1.511150 -0.031937 20.222769 3.684305 2.316628 18.787245 0.000004 -0.000001 10.751610 -0.479869 1.397905 0.000000 0.000002 0.000000 3.273804 0.305946 -0.580111 21.486790 11.830362 2.266130 8.162916 0.000002 0.000001 18.399048 -3.798977 -4.940568 0.000003 -0.000001 -0.000002 7.169972 9.795523 -4.205667 -0.067696 -0.291038 13.459878 -7.307555 4.721053 -6.671122 1.633042 -2.028481 -1.081490 -0.000000 0.000000 0.000002 -6.264766 -5.908463 -8.403950 0.046524 0.282379 15.989443 8.333618 0.078442 -5.549088 -1.398223 0.964370 -1.092542 0.000000 0.000000 -0.000001 
0.940770 99.259918 2.196994 0.152889 -3.589322 -1.403065 -0.425644 0.224778 -0.878243 -0.714857 0.106575 -5.278846 -0.713923 -1.619762 9.724079 0.950314 2.731940 2.164852 -0.371567 0.783858 -3.577039 -1.148584 0.639288 -11.344052 0.000077 -0.000022 0.000006 0.011078 0.047520 0.049922 0.707861 -3.684680 -10.564844 -0.694273 3.778053 -10.568627 -9.352846 -8.783392 12.625642 -49.816422 -2.884375 23.734512 0.115622 -40.588993 0.269167 -4.288078 -11.166958 11.876746 -5.882100 9.861278 0.702589 -10.936859 -0.360576 7.156195 0.000001 8.774814 -0.000001 -15.819604 17.698475 6.070014 -1.844031 2.498503 -2.507274 -10.163589 4.678941 4.621103 -20.975998 -0.000003 0.000002 -21.226255 2.451692 -3.593995 0.000003 -0.000005 -0.000000 -1.362680 2.240797 -0.746322 -21.334887 0.584907 3.008318 -13.821197 -0.000004 0.000002 -23.887131 -0.249081 -0.839482 -59.973251 2.558506 -0.969468 -0.294026 1.679687 0.833255 -14.218194 0.093215 1.300577 -34.212006 -0.287567 0.967167 -20.033178 0.964533 1.212840 0.000001 0.000001 0.000000 -3.440386 0.788233 0.501654 -15.928167 -3.167305 2.999702 -6.338817 -0.000001 0.000000 -18.123413 3.648175 -4.905662 -0.000004 -0.000001 -0.000003 17.250320 12.783016 16.105280 44.911541 8.029882 23.380991 0.695037 45.989914 0.589123 -0.056840 3.167568 4.038340 2.243541 -5.255033 -3.180151 14.282878 -0.826594 6.952494 -0.000002 -12.690592 0.000000 16.466770 -17.882128 2.289050 1.665666 -1.955921 -2.878297 4.727794 -4.170585 4.993919 11.020513 0.000001 -0.000002 12.109035 -3.735713 -2.866779 -0.000000 0.000000 0.000000 1.291985 -1.928548 -1.498087 14.800111 0.567467 3.865599 14.242553 -1.341737 -6.660650 19.631941 0.143926 -0.648246 49.896488 -0.893891 -6.623342 0.353029 -1.511149 -0.031941 20.222769 3.684304 2.316626 18.787247 0.000005 -0.000003 10.751611 -0.479868 1.397902 -0.000000 0.000002 -0.000001 3.273804 0.305948 -0.580110 21.486790 11.830360 2.266129 8.162916 0.000001 -0.000002 18.399054 -3.798979 -4.940570 0.000004 -0.000001 -0.000002 7.193460 9.825548 -4.246970 -0.068957 -0.288709 13.434628 -7.328875 4.677132 -6.606689 1.633932 -2.034654 -1.091086 -0.000000 -0.000000 0.000002 -6.227051 -5.857267 -8.496810 0.044346 0.277131 16.066332 8.254918 -0.008585 -5.563407 -1.399014 0.952977 -1.047546 0.000000 0.000000 -0.000001 
